<svg width="153" height="148" viewBox="0 0 153 148" fill="none" xmlns="http://www.w3.org/2000/svg">
<path d="M132.168 38.9233H43.48C41.3417 38.9233 39.291 39.7728 37.779 41.2848C36.267 42.7968 35.4175 44.8475 35.4175 46.9858V119.548C35.4175 121.687 36.267 123.737 37.779 125.249C39.291 126.761 41.3417 127.611 43.48 127.611H132.168C134.306 127.611 136.357 126.761 137.869 125.249C139.381 123.737 140.23 121.687 140.23 119.548V46.9858C140.23 44.8475 139.381 42.7968 137.869 41.2848C136.357 39.7728 134.306 38.9233 132.168 38.9233ZM101.933 63.1108C103.129 63.1108 104.298 63.4655 105.293 64.1299C106.287 64.7944 107.062 65.7388 107.52 66.8437C107.977 67.9486 108.097 69.1644 107.864 70.3374C107.631 71.5104 107.055 72.5878 106.209 73.4335C105.363 74.2792 104.286 74.8551 103.113 75.0884C101.94 75.3217 100.724 75.202 99.6191 74.7443C98.5142 74.2866 97.5698 73.5116 96.9054 72.5172C96.2409 71.5228 95.8863 70.3537 95.8863 69.1577C95.8863 67.554 96.5234 66.0159 97.6574 64.8819C98.7914 63.7479 100.329 63.1108 101.933 63.1108ZM132.168 119.548H43.48V99.7398L66.8311 76.3837C67.2055 76.0089 67.6501 75.7116 68.1394 75.5087C68.6288 75.3058 69.1534 75.2014 69.6832 75.2014C70.2129 75.2014 70.7375 75.3058 71.2269 75.5087C71.7163 75.7116 72.1609 76.0089 72.5353 76.3837L106.468 110.307C107.225 111.063 108.251 111.488 109.32 111.488C110.39 111.488 111.416 111.063 112.173 110.307C112.929 109.55 113.354 108.524 113.354 107.455C113.354 106.385 112.929 105.359 112.173 104.602L103.274 95.7085L110.5 88.4775C111.256 87.722 112.28 87.2977 113.349 87.2977C114.418 87.2977 115.443 87.722 116.199 88.4775L132.168 104.466V119.548Z" fill="#204E7E"/>
<circle cx="39.1253" cy="38.9233" r="35.0474" fill="#204E7E" stroke="white" stroke-width="7"/>
<path d="M53.2633 33.8341C53.9982 34.569 54.411 35.5656 54.411 36.6049C54.411 37.6441 53.9982 38.6408 53.2633 39.3756C52.5285 40.1105 51.5318 40.5233 50.4926 40.5233C49.4534 40.5233 48.4567 40.1105 47.7218 39.3756L43.9765 35.6237V52.2482C43.9765 53.2856 43.5643 54.2805 42.8308 55.0141C42.0972 55.7477 41.1022 56.1598 40.0648 56.1598C39.0274 56.1598 38.0324 55.7477 37.2989 55.0141C36.5653 54.2805 36.1532 53.2856 36.1532 52.2482V35.6237L32.4013 39.3789C31.6664 40.1137 30.6698 40.5266 29.6305 40.5266C28.5913 40.5266 27.5946 40.1137 26.8598 39.3789C26.1249 38.644 25.7121 37.6474 25.7121 36.6081C25.7121 35.5689 26.1249 34.5722 26.8598 33.8374L37.2908 23.4064C37.6542 23.0417 38.086 22.7523 38.5615 22.5549C39.037 22.3575 39.5467 22.2559 40.0616 22.2559C40.5764 22.2559 41.0861 22.3575 41.5616 22.5549C42.0371 22.7523 42.4689 23.0417 42.8323 23.4064L53.2633 33.8341Z" fill="white"/>
</svg>
